<?xml version="1.0" ?><!DOCTYPE svg  PUBLIC '-//W3C//DTD SVG 1.1//EN'  'http://www.w3.org/Graphics/SVG/1.1/DTD/svg11.dtd'><svg enable-background="new 0 0 50 50" height="50px" id="Layer_1" version="1.1" viewBox="0 0 50 50" width="50px" xml:space="preserve" xmlns="http://www.w3.org/2000/svg" xmlns:xlink="http://www.w3.org/1999/xlink"><rect fill="none" height="50" width="50"/><polyline fill="none" points="28.081,29.919   24,34 22,34 22,36 20,38 18,38 18,40 15,43 12,43 12,46 9,49 3,49 1,47 1,41 19.96,22.04 " stroke="#000000" stroke-linecap="round" stroke-miterlimit="10" stroke-width="2"/><path d="M49,16  c0,8.281-6.719,15-15,15s-15-6.719-15-15c0-8.282,6.719-15,15-15S49,7.718,49,16z" fill="none" stroke="#000000" stroke-linecap="round" stroke-miterlimit="10" stroke-width="2"/><path d="M41.071,23.071L26.929,8.929  c3.904-3.904,10.238-3.904,14.143,0S44.976,19.167,41.071,23.071z" fill="none" stroke="#000000" stroke-linecap="round" stroke-miterlimit="10" stroke-width="2"/><line fill="none" stroke="#000000" stroke-linecap="round" stroke-miterlimit="10" stroke-width="2" x1="1.61" x2="18.282" y1="46.39" y2="29.718"/></svg>