<?xml version="1.0" ?><!DOCTYPE svg  PUBLIC '-//W3C//DTD SVG 1.1//EN'  'http://www.w3.org/Graphics/SVG/1.1/DTD/svg11.dtd'><svg height="48px" id="Layer_1" style="enable-background:new 0 0 48 48;" version="1.1" viewBox="0 0 48 48" width="48px" xml:space="preserve" xmlns="http://www.w3.org/2000/svg" xmlns:xlink="http://www.w3.org/1999/xlink"><line style="fill:none;stroke:#231F20;stroke-miterlimit:10;" x1="13.428" x2="6.417" y1="12.223" y2="36.863"/><line style="fill:none;stroke:#231F20;stroke-miterlimit:10;" x1="14.795" x2="21.155" y1="32.299" y2="9.326"/><line style="fill:none;stroke:#231F20;stroke-miterlimit:10;" x1="21.284" x2="28.15" y1="37.225" y2="12.736"/><line style="fill:none;stroke:#231F20;stroke-miterlimit:10;" x1="42.839" x2="35.789" y1="12.802" y2="36.838"/><line style="fill:none;stroke:#231F20;stroke-miterlimit:10;" x1="29.602" x2="35.799" y1="31.645" y2="9.054"/><line style="fill:none;stroke:#231F20;stroke-miterlimit:10;" x1="14.957" x2="6.236" y1="31.905" y2="37.082"/><line style="fill:none;stroke:#231F20;stroke-miterlimit:10;" x1="14.929" x2="21.464" y1="32.109" y2="37.432"/><line style="fill:none;stroke:#231F20;stroke-miterlimit:10;" x1="13.186" x2="21.077" y1="12.504" y2="9.403"/><line style="fill:none;stroke:#231F20;stroke-miterlimit:10;" x1="20.767" x2="28.15" y1="9.403" y2="12.736"/><line style="fill:none;stroke:#231F20;stroke-miterlimit:10;" x1="28.15" x2="36.033" y1="12.736" y2="8.912"/><line style="fill:none;stroke:#231F20;stroke-miterlimit:10;" x1="21" x2="29.834" y1="37.482" y2="31.361"/><line style="fill:none;stroke:#231F20;stroke-miterlimit:10;" x1="35.672" x2="29.729" y1="36.398" y2="31.748"/><line style="fill:none;stroke:#231F20;stroke-miterlimit:10;" x1="42.963" x2="35.705" y1="13.248" y2="8.875"/><line style="fill:none;stroke:#231F20;stroke-miterlimit:10;" x1="14.593" x2="12.023" y1="13.249" y2="22.73"/><line style="fill:none;stroke:#231F20;stroke-miterlimit:10;" x1="23.69" x2="21.006" y1="17.246" y2="26.697"/><line style="fill:none;stroke:#231F20;stroke-miterlimit:10;" x1="25.73" x2="21.642" y1="14.934" y2="29.868"/><path d="M39.318,18.479c0.143-0.289,0.223-0.613,0.223-0.953  c0-1.195-0.969-2.167-2.164-2.167c-1.197,0-2.166,0.972-2.166,2.167c0,0.34,0.078,0.664,0.22,0.953" style="fill:none;stroke:#231F20;stroke-miterlimit:10;"/><polyline points="35.42,18.455 37.33,22.124 39.323,18.467 " style="fill:none;stroke:#231F20;stroke-miterlimit:10;"/><circle cx="37.394" cy="17.42" r="1.169" style="fill:none;stroke:#231F20;stroke-width:0.5;stroke-miterlimit:10;"/><path d="M14.964,26.895c0.144-0.288,0.223-0.612,0.223-0.953  c0-1.195-0.969-2.166-2.164-2.166c-1.197,0-2.166,0.971-2.166,2.166c0,0.341,0.079,0.665,0.22,0.953" style="fill:none;stroke:#231F20;stroke-miterlimit:10;"/><polyline points="11.066,26.871 12.976,30.541 14.969,26.883 " style="fill:none;stroke:#231F20;stroke-miterlimit:10;"/><circle cx="13.039" cy="25.837" r="1.169" style="fill:none;stroke:#231F20;stroke-width:0.5;stroke-miterlimit:10;"/></svg>