<?xml version="1.0" ?><!DOCTYPE svg  PUBLIC '-//W3C//DTD SVG 1.1//EN'  'http://www.w3.org/Graphics/SVG/1.1/DTD/svg11.dtd'><svg enable-background="new 0 0 24 24" height="24px" id="Layer_1" version="1.1" viewBox="0 0 24 24" width="24px" xml:space="preserve" xmlns="http://www.w3.org/2000/svg" xmlns:xlink="http://www.w3.org/1999/xlink"><g><path d="M17,6H7C6.4,6,6,6.4,6,7v10c0,0.6,0.4,1,1,1h10c0.6,0,1-0.4,1-1V7C18,6.4,17.6,6,17,6z M16,16H8V8h8V16z"/><path d="M23,3v18c0,0.6,0.4,1,1,1V2C23.4,2,23,2.4,23,3z"/><path d="M20,5v14c0,0.6,0.4,1,1,1V4C20.4,4,20,4.4,20,5z"/><path d="M0,2v20c0.6,0,1-0.4,1-1V3C1,2.4,0.6,2,0,2z"/><path d="M3,4v16c0.6,0,1-0.4,1-1V5C4,4.4,3.6,4,3,4z"/></g></svg>